<svg width="40" height="35" viewBox="0 0 40 35" fill="none" xmlns="http://www.w3.org/2000/svg">
<path d="M20 31.2501H23.5V8.50006L34.6895 13.2951C35.0045 13.4301 35.2729 13.6547 35.4614 13.9409C35.65 14.2271 35.7503 14.5623 35.75 14.9051V31.2501H39.25V34.7501H0.75V31.2501H4.25V7.88757C4.24996 7.54897 4.34814 7.21763 4.53265 6.93373C4.71716 6.64982 4.98007 6.42554 5.2895 6.28807L18.7698 0.296065C18.9031 0.236817 19.0492 0.211864 19.1946 0.223479C19.3401 0.235094 19.4804 0.282907 19.6026 0.362566C19.7249 0.442225 19.8253 0.5512 19.8947 0.679572C19.9641 0.807943 20.0003 0.951634 20 1.09757V31.2501Z" fill="url(#paint0_linear_28_361)"/>
<defs>
<linearGradient id="paint0_linear_28_361" x1="0.750001" y1="-2.65676" x2="41.4104" y2="-0.138984" gradientUnits="userSpaceOnUse">
<stop stop-color="#FEF1C8"/>
<stop offset="1" stop-color="#E3CD8A"/>
</linearGradient>
</defs>
</svg>
