<svg width="42" height="42" viewBox="0 0 42 42" fill="none" xmlns="http://www.w3.org/2000/svg">
<path d="M9.32761 5.72427C10.4197 5.33467 11.5999 5.26307 12.7311 5.51777C13.8623 5.77248 14.8979 6.34303 15.7176 7.1631C16.5373 7.98318 17.1074 9.01907 17.3616 10.1504C17.6158 11.2817 17.5437 12.4619 17.1536 13.5538L36.1324 32.5325L32.4189 36.2443L13.4401 17.2673C12.348 17.6569 11.1678 17.7285 10.0366 17.4738C8.90543 17.2191 7.86979 16.6485 7.05008 15.8284C6.23038 15.0084 5.66029 13.9725 5.40609 12.8412C5.15189 11.7099 5.22402 10.5297 5.61411 9.43777L9.52711 13.3525C9.76925 13.6032 10.0589 13.8032 10.3792 13.9408C10.6994 14.0784 11.0439 14.1508 11.3924 14.1538C11.741 14.1568 12.0866 14.0904 12.4092 13.9584C12.7318 13.8264 13.0249 13.6315 13.2714 13.3851C13.5179 13.1386 13.7128 12.8455 13.8448 12.5229C13.9768 12.2003 14.0432 11.8546 14.0401 11.5061C14.0371 11.1575 13.9647 10.8131 13.8271 10.4928C13.6895 10.1726 13.4896 9.88292 13.2389 9.64077L9.32586 5.72252L9.32761 5.72427ZM27.4699 9.02127L33.0384 5.92727L35.5129 8.40177L32.4189 13.9703L29.3249 14.5898L25.6149 18.3015L23.1386 15.827L26.8504 12.1153L27.4699 9.02127ZM15.0956 22.6328L18.8074 26.3463L10.1449 35.0088C9.66717 35.482 9.02611 35.7538 8.35387 35.7683C7.68163 35.7828 7.02948 35.5387 6.5319 35.0865C6.03432 34.6342 5.72925 34.0083 5.67961 33.3377C5.62997 32.6671 5.83954 32.0031 6.26511 31.4825L6.43486 31.2953L15.0974 22.6328H15.0956Z" fill="#F2E1AB"/>
</svg>
