<svg width="40" height="39" viewBox="0 0 40 39" fill="none" xmlns="http://www.w3.org/2000/svg">
<path d="M7.62567 21.1122L11.3374 24.8239L13.8119 22.3494L10.1019 18.6377L13.8119 14.9259L18.7627 19.8749L21.2372 17.4004L16.2899 12.4497L19.9999 8.73792L23.7117 12.4497L26.1879 9.97517L22.4744 6.26342L27.4252 1.31267C27.7533 0.984595 28.1984 0.800293 28.6624 0.800293C29.1265 0.800293 29.5715 0.984595 29.8997 1.31267L38.5622 9.97517C38.8902 10.3033 39.0745 10.7484 39.0745 11.2124C39.0745 11.6765 38.8902 12.1215 38.5622 12.4497L12.5747 38.4372C12.2465 38.7652 11.8015 38.9495 11.3374 38.9495C10.8734 38.9495 10.4283 38.7652 10.1002 38.4372L1.43767 29.7747C1.10959 29.4465 0.925293 29.0015 0.925293 28.5374C0.925293 28.0734 1.10959 27.6283 1.43767 27.3002L7.62567 21.1122Z" fill="url(#paint0_linear_28_347)"/>
<defs>
<linearGradient id="paint0_linear_28_347" x1="0.925294" y1="-2.37883" x2="41.2454" y2="-0.139619" gradientUnits="userSpaceOnUse">
<stop stop-color="#FEF1C8"/>
<stop offset="1" stop-color="#E3CD8A"/>
</linearGradient>
</defs>
</svg>
