<svg width="364" height="209" viewBox="0 0 364 209" fill="none" xmlns="http://www.w3.org/2000/svg">
<path fill-rule="evenodd" clip-rule="evenodd" d="M255.408 136.83C256.387 136.83 257.296 136.915 258.134 137.083C258.975 137.253 259.746 137.509 260.446 137.85C261.143 138.191 261.765 138.578 262.309 139.012C262.858 139.45 263.332 139.937 263.731 140.473C264.129 141.006 264.453 141.57 264.703 142.164C264.952 142.756 265.128 143.379 265.229 144.032C265.432 145.333 265.33 146.6 264.925 147.833C264.722 148.452 264.445 149.04 264.095 149.593C263.745 150.146 263.321 150.669 262.824 151.16C262.324 151.654 261.75 152.083 261.104 152.445C260.557 152.752 259.953 153.013 259.295 153.226L264.764 165.13H262.657L257.372 153.689L257.067 153.727C256.887 153.748 256.704 153.765 256.52 153.778C256.345 153.79 256.159 153.8 255.964 153.807C255.761 153.815 255.576 153.818 255.408 153.818H247.024V165.13H242.64V136.83L255.408 136.83ZM85.1727 151.86H83.1863V142.069V138.83H91.4143C92.0482 138.83 92.6285 138.909 93.154 139.068C93.6756 139.226 94.1467 139.463 94.565 139.777C94.9928 140.097 95.3679 140.46 95.6893 140.861C96.0096 141.261 96.2782 141.704 96.4953 142.188C96.7134 142.676 96.8777 143.183 96.9862 143.706C97.0951 144.231 97.1495 144.777 97.1495 145.345C97.1495 145.914 97.0965 146.46 96.9911 146.984C96.8857 147.508 96.7259 148.015 96.5134 148.504C96.303 148.987 96.0392 149.429 95.7221 149.829C95.4039 150.231 95.0308 150.592 94.6041 150.913C94.1858 151.227 93.7119 151.463 93.1847 151.621C92.6526 151.78 92.0622 151.86 91.4143 151.86H85.1727ZM83.1863 153.818H85.1727H87.5237H91.5311C92.6145 153.818 93.6132 153.715 94.5274 153.508C95.4454 153.301 96.2751 152.989 97.0141 152.572C97.7483 152.159 98.3927 151.691 98.9482 151.17C99.5041 150.646 99.9685 150.068 100.34 149.437C101.082 148.176 101.46 146.806 101.474 145.327C101.48 144.586 101.393 143.873 101.211 143.188C101.028 142.503 100.751 141.843 100.379 141.212C100.008 140.581 99.5428 140.003 98.987 139.479C98.4339 138.959 97.7891 138.491 97.0536 138.076C96.3138 137.66 95.4813 137.348 94.5567 137.14C93.6362 136.934 92.6275 136.83 91.5311 136.83H78.8024V160.63V164.913V165.13H83.1863V164.913V162.149V160.63V153.818ZM14.5114 162.149V164.946V165.13H10.167V164.946V160.63V138.829H0V138.522V136.83H24.6392V138.829H14.5114V160.63V162.149ZM171.221 164.913V165.13H166.837V164.913V136.83H167.139H176.761C177.909 136.83 178.988 136.931 179.998 137.133C181.01 137.335 181.953 137.64 182.826 138.046C183.697 138.45 184.493 138.921 185.212 139.456C185.934 139.993 186.582 140.597 187.156 141.268C187.726 141.934 188.226 142.646 188.655 143.402C189.085 144.161 189.442 144.96 189.726 145.798C190.01 146.636 190.224 147.488 190.366 148.354C190.509 149.22 190.58 150.096 190.58 150.98C190.58 151.865 190.507 152.742 190.361 153.607C190.216 154.469 189.997 155.322 189.705 156.163C189.121 157.849 188.251 159.359 187.096 160.693C186.516 161.364 185.865 161.968 185.144 162.504C184.423 163.04 183.631 163.511 182.769 163.914C181.903 164.32 180.968 164.625 179.965 164.827C178.98 165.026 177.93 165.127 176.814 165.13H176.761H173.207L175.558 163.171H176.644C178.202 163.171 179.568 162.829 180.74 162.146C181.328 161.802 181.869 161.401 182.36 160.944C182.849 160.49 183.289 159.978 183.68 159.407C184.073 158.835 184.417 158.223 184.711 157.575C185.007 156.922 185.253 156.233 185.449 155.508C185.646 154.777 185.795 154.036 185.893 153.284C185.992 152.538 186.041 151.777 186.041 151C186.041 149.456 185.844 147.953 185.449 146.493C185.253 145.768 185.007 145.078 184.711 144.425C184.417 143.777 184.073 143.166 183.68 142.593C183.289 142.023 182.849 141.51 182.362 141.056C181.869 140.599 181.328 140.198 180.74 139.855C179.568 139.172 178.202 138.83 176.644 138.83H171.221V139.293V163.171V164.913ZM204.738 164.913V136.83H205.041H214.662C215.81 136.83 216.889 136.931 217.9 137.133C218.911 137.335 219.854 137.64 220.728 138.046C221.598 138.45 222.394 138.921 223.113 139.456C223.835 139.993 224.483 140.597 225.057 141.268C225.627 141.934 226.127 142.646 226.556 143.402C226.986 144.161 227.344 144.96 227.628 145.798C227.911 146.636 228.125 147.488 228.267 148.354C228.41 149.22 228.481 150.096 228.481 150.98C228.481 151.865 228.408 152.742 228.262 153.607C228.117 154.469 227.898 155.322 227.607 156.163C227.022 157.849 226.152 159.359 224.997 160.693C224.417 161.364 223.766 161.968 223.045 162.504C222.324 163.04 221.533 163.511 220.67 163.914C219.804 164.32 218.869 164.625 217.866 164.827C216.881 165.026 215.831 165.127 214.715 165.13H214.662H211.108L213.458 163.172H214.545C216.103 163.172 217.469 162.83 218.641 162.146C219.23 161.803 219.77 161.402 220.262 160.945C220.75 160.491 221.19 159.978 221.581 159.408C221.974 158.835 222.318 158.224 222.612 157.576C222.908 156.923 223.154 156.233 223.35 155.509C223.548 154.778 223.696 154.036 223.795 153.285C223.893 152.539 223.942 151.777 223.942 151.001C223.942 149.457 223.745 147.953 223.35 146.493C223.154 145.768 222.908 145.079 222.612 144.426C222.318 143.778 221.974 143.167 221.581 142.594C221.19 142.023 220.75 141.511 220.263 141.057C219.771 140.6 219.23 140.199 218.641 139.856C217.469 139.172 216.103 138.83 214.545 138.83H209.122V139.062V163.172V164.914V165.131H204.738L204.738 164.913ZM49.4226 136.158C50.6721 136.158 51.8466 136.264 52.945 136.475C54.0438 136.687 55.0661 137.006 56.0107 137.432C56.9538 137.856 57.8156 138.347 58.5948 138.904C59.3788 139.464 60.084 140.092 60.709 140.787C61.3325 141.481 61.8803 142.225 62.3513 143.015C62.821 143.805 63.216 144.646 63.5349 145.536C63.8531 146.425 64.0914 147.323 64.2501 148.228C64.4089 149.136 64.4888 150.054 64.4888 150.98C64.4888 151.906 64.4089 152.824 64.2501 153.732C64.0914 154.638 63.8531 155.535 63.5349 156.424C63.216 157.315 62.821 158.155 62.3513 158.945C61.8803 159.736 61.3325 160.479 60.709 161.173C60.084 161.868 59.3788 162.496 58.5948 163.056C57.8125 163.615 56.9507 164.106 56.0107 164.53C55.0658 164.954 54.0438 165.273 52.945 165.485C51.8466 165.696 50.6721 165.802 49.4226 165.802C48.1735 165.802 46.9976 165.696 45.8957 165.485C44.791 165.273 43.7641 164.954 42.8154 164.53C41.8716 164.108 41.0038 163.616 40.2131 163.056C39.4211 162.496 38.7096 161.868 38.0795 161.174C37.4486 160.48 36.8973 159.736 36.4259 158.944C35.9556 158.154 35.5637 157.312 35.2514 156.421C34.9405 155.535 34.7071 154.638 34.5518 153.731C34.3959 152.823 34.318 151.905 34.318 150.98C34.318 150.055 34.3959 149.138 34.5518 148.229C34.7071 147.322 34.9405 146.425 35.2514 145.539C35.5637 144.648 35.9556 143.806 36.4259 143.016C36.8973 142.224 37.4486 141.481 38.0795 140.786C38.7096 140.093 39.4211 139.464 40.2131 138.904C41.0038 138.344 41.8716 137.853 42.8154 137.43C43.7641 137.006 44.791 136.688 45.8957 136.475C46.9976 136.264 48.1735 136.158 49.4226 136.158V136.158ZM49.4226 137.919C48.5364 137.919 47.7066 138.013 46.9351 138.198C46.1675 138.382 45.454 138.659 44.7962 139.028C44.1322 139.401 43.5248 139.831 42.9745 140.32C42.4243 140.808 41.9278 141.357 41.486 141.966C41.0425 142.577 40.6542 143.232 40.3217 143.93C39.9888 144.629 39.7107 145.372 39.4881 146.16C39.2644 146.953 39.0963 147.75 38.9849 148.55C38.874 149.35 38.8185 150.16 38.8185 150.98C38.8185 151.8 38.874 152.61 38.9849 153.41C39.0963 154.21 39.2644 155.008 39.4881 155.8C39.7107 156.588 39.9891 157.332 40.3217 158.03C40.6542 158.728 41.0425 159.383 41.486 159.994C41.9281 160.603 42.4246 161.153 42.9749 161.641C43.5248 162.129 44.1322 162.56 44.7962 162.932C45.454 163.301 46.1675 163.578 46.9351 163.762C47.7066 163.948 48.5364 164.041 49.4226 164.041C50.3082 164.041 51.1358 163.948 51.9045 163.762C52.6715 163.578 53.3798 163.301 54.0284 162.933C54.6827 162.563 55.2849 162.132 55.8352 161.641C56.3844 161.151 56.8799 160.601 57.3205 159.994C57.764 159.383 58.1524 158.728 58.4849 158.03C58.8178 157.332 59.0959 156.588 59.3185 155.8C59.5421 155.008 59.7103 154.21 59.8216 153.41C59.9326 152.61 59.9881 151.8 59.9881 150.98C59.9881 150.16 59.9326 149.35 59.8216 148.55C59.7103 147.75 59.5421 146.953 59.3185 146.16C59.0959 145.372 58.8178 144.629 58.4849 143.93C58.1524 143.232 57.764 142.577 57.3205 141.966C56.8799 141.359 56.3844 140.81 55.8355 140.319C55.2853 139.828 54.6823 139.397 54.0284 139.027C53.3798 138.66 52.6715 138.382 51.9045 138.198C51.1358 138.013 50.3082 137.919 49.4226 137.919V137.919ZM130.633 164.709L140.482 139.985L139.23 136.83H143.659C147.412 146.265 151.169 155.698 154.928 165.13H150.539L148.708 160.587L146.62 155.34H146.629L141.547 142.621L138.526 150.183L138.485 150.284L136.465 155.34H136.476L134.613 160.024L132.556 165.13H130.465L130.633 164.709ZM255.252 151.859C255.9 151.859 256.49 151.78 257.022 151.621C257.549 151.463 258.023 151.226 258.441 150.912C258.868 150.592 259.241 150.23 259.56 149.829C259.877 149.429 260.141 148.987 260.351 148.503C260.563 148.014 260.723 147.507 260.828 146.983C260.934 146.46 260.987 145.914 260.987 145.344C260.987 144.213 260.775 143.16 260.351 142.185C260.141 141.702 259.877 141.259 259.56 140.86C259.241 140.458 258.868 140.096 258.441 139.776C258.023 139.462 257.549 139.226 257.022 139.068C256.49 138.909 255.9 138.829 255.252 138.829H247.024V151.859H255.252ZM279.646 164.823V136.83H299.688V138.829H284.029V147.509H295.17V149.468H284.029V163.171H299.688V165.13H279.646V164.823ZM330.305 143.375L328.804 143.527V143.188C328.804 142.74 328.756 142.321 328.658 141.934C328.562 141.551 328.417 141.198 328.225 140.875C328.029 140.545 327.798 140.241 327.536 139.965C327.274 139.69 326.976 139.439 326.641 139.213C326.302 138.983 325.943 138.783 325.564 138.614C325.178 138.443 324.769 138.3 324.338 138.185C323.469 137.955 322.579 137.84 321.667 137.84C321.103 137.84 320.571 137.874 320.07 137.94C319.566 138.007 319.088 138.108 318.635 138.242C318.181 138.376 317.761 138.532 317.374 138.707C316.992 138.881 316.641 139.076 316.322 139.292C316.009 139.504 315.733 139.734 315.495 139.981C315.259 140.227 315.059 140.492 314.896 140.773C314.735 141.052 314.613 141.339 314.532 141.63C314.453 141.918 314.413 142.214 314.413 142.516C314.424 143.067 314.524 143.564 314.709 144.008C314.894 144.449 315.166 144.84 315.523 145.179C316.278 145.895 317.233 146.523 318.385 147.063C318.968 147.336 319.579 147.604 320.218 147.868C320.868 148.136 321.529 148.392 322.197 148.635C322.895 148.889 323.568 149.17 324.215 149.477C324.867 149.786 325.491 150.12 326.086 150.479C326.691 150.843 327.252 151.255 327.767 151.714C328.283 152.174 328.752 152.677 329.171 153.224C329.6 153.785 329.93 154.429 330.159 155.153C330.384 155.868 330.511 156.66 330.538 157.531C330.565 158.081 330.529 158.624 330.431 159.158C330.333 159.694 330.171 160.219 329.948 160.734C329.726 161.248 329.448 161.733 329.116 162.187C328.785 162.639 328.4 163.061 327.962 163.451C327.523 163.842 327.032 164.193 326.489 164.502C325.95 164.809 325.356 165.079 324.707 165.31C323.414 165.769 321.933 166 320.265 166C319.696 166 319.13 165.966 318.569 165.898C318.011 165.83 317.454 165.727 316.901 165.588C316.347 165.452 315.824 165.279 315.332 165.068C314.839 164.857 314.376 164.608 313.946 164.321C313.512 164.036 313.12 163.71 312.771 163.347C312.42 162.981 312.112 162.576 311.846 162.135C311.579 161.688 311.377 161.199 311.242 160.666C311.109 160.138 311.042 159.571 311.042 158.969V158.694L312.738 158.509V158.85C312.738 159.302 312.788 159.721 312.888 160.108C312.987 160.493 313.136 160.852 313.336 161.183C313.538 161.519 313.773 161.828 314.041 162.109C314.306 162.387 314.606 162.64 314.94 162.866C315.278 163.095 315.636 163.294 316.014 163.464C316.397 163.636 316.801 163.78 317.225 163.894C317.657 164.009 318.092 164.097 318.53 164.154C318.965 164.21 319.414 164.239 319.875 164.239C320.439 164.239 320.971 164.205 321.472 164.139C321.976 164.071 322.455 163.97 322.908 163.836C323.358 163.703 323.777 163.545 324.165 163.363C324.548 163.183 324.897 162.979 325.213 162.753C325.527 162.529 325.805 162.285 326.046 162.027C326.289 161.767 326.496 161.489 326.667 161.198C326.836 160.91 326.962 160.619 327.045 160.327C327.127 160.038 327.169 159.741 327.169 159.437C327.169 159.004 327.116 158.605 327.011 158.243C326.907 157.881 326.751 157.552 326.544 157.255C326.327 156.948 326.076 156.66 325.791 156.392C325.504 156.122 325.178 155.869 324.816 155.635C324.451 155.398 324.058 155.172 323.64 154.958C323.221 154.744 322.779 154.543 322.315 154.356C322 154.229 319.458 153.19 319.394 153.19C318.905 152.994 318.407 152.783 317.9 152.557C317.401 152.335 316.911 152.106 316.433 151.869C315.943 151.627 315.477 151.36 315.037 151.069C314.597 150.778 314.183 150.462 313.796 150.124C313.406 149.782 313.05 149.409 312.731 149.006C312.411 148.601 312.126 148.165 311.877 147.698C311.375 146.76 311.097 145.634 311.043 144.321V144.317C311.03 143.775 311.073 143.245 311.175 142.727C311.276 142.208 311.435 141.697 311.652 141.194C311.869 140.692 312.143 140.218 312.472 139.774C312.8 139.331 313.183 138.917 313.621 138.534C314.058 138.148 314.549 137.801 315.093 137.494C315.634 137.188 316.228 136.92 316.874 136.69C317.523 136.459 318.219 136.286 318.959 136.172C319.699 136.057 320.485 136 321.317 136C322.484 136 323.613 136.141 324.702 136.424C325.252 136.569 325.772 136.747 326.26 136.959C326.754 137.174 327.219 137.425 327.654 137.71C328.094 138 328.492 138.327 328.845 138.693C329.199 139.059 329.509 139.463 329.774 139.905C330.042 140.351 330.243 140.841 330.378 141.373C330.511 141.902 330.578 142.468 330.578 143.07V143.347L330.305 143.375ZM363.727 143.375L362.226 143.527V143.188C362.226 142.74 362.178 142.321 362.08 141.934C361.984 141.551 361.839 141.198 361.647 140.875C361.45 140.545 361.22 140.241 360.958 139.965C360.696 139.69 360.397 139.439 360.063 139.213C359.724 138.983 359.365 138.783 358.986 138.614C358.6 138.443 358.191 138.3 357.759 138.185C356.891 137.955 356.001 137.84 355.089 137.84C354.525 137.84 353.993 137.874 353.492 137.94C352.988 138.007 352.509 138.108 352.057 138.242C351.603 138.376 351.182 138.532 350.795 138.707C350.414 138.881 350.063 139.076 349.744 139.292C349.431 139.504 349.155 139.734 348.917 139.981C348.681 140.227 348.48 140.492 348.318 140.773C348.156 141.052 348.035 141.339 347.954 141.63C347.874 141.918 347.835 142.214 347.835 142.516C347.846 143.067 347.946 143.564 348.131 144.008C348.316 144.449 348.587 144.84 348.945 145.179C349.7 145.895 350.655 146.523 351.807 147.063C352.39 147.336 353.001 147.604 353.639 147.868C354.291 148.136 354.951 148.392 355.619 148.635C356.317 148.889 356.99 149.17 357.636 149.477C358.289 149.786 358.913 150.12 359.508 150.479C360.113 150.843 360.674 151.255 361.189 151.714C361.705 152.174 362.173 152.677 362.592 153.224C363.022 153.785 363.352 154.429 363.581 155.153C363.806 155.868 363.933 156.66 363.96 157.531C363.987 158.081 363.951 158.624 363.853 159.158C363.754 159.694 363.594 160.219 363.37 160.734C363.148 161.248 362.87 161.733 362.538 162.187C362.207 162.639 361.822 163.061 361.384 163.451C360.945 163.842 360.454 164.193 359.911 164.502C359.372 164.809 358.778 165.079 358.129 165.31C356.836 165.769 355.355 166 353.687 166C353.118 166 352.552 165.966 351.991 165.898C351.432 165.83 350.876 165.727 350.323 165.588C349.769 165.452 349.245 165.279 348.754 165.068C348.261 164.857 347.798 164.608 347.368 164.321C346.934 164.036 346.542 163.71 346.193 163.347C345.842 162.981 345.533 162.576 345.268 162.135C345 161.688 344.799 161.199 344.664 160.666C344.531 160.138 344.464 159.571 344.464 158.969V158.694L346.16 158.509V158.85C346.16 159.302 346.21 159.721 346.31 160.108C346.409 160.493 346.558 160.852 346.758 161.183C346.96 161.519 347.195 161.828 347.462 162.109C347.728 162.387 348.028 162.64 348.362 162.866C348.7 163.095 349.058 163.294 349.436 163.464C349.819 163.636 350.223 163.78 350.647 163.894C351.078 164.009 351.514 164.097 351.952 164.154C352.387 164.21 352.836 164.239 353.297 164.239C353.86 164.239 354.393 164.205 354.893 164.139C355.397 164.071 355.877 163.97 356.33 163.836C356.78 163.703 357.199 163.545 357.587 163.363C357.969 163.183 358.319 162.979 358.635 162.753C358.948 162.529 359.226 162.285 359.468 162.027C359.711 161.767 359.918 161.489 360.089 161.198C360.258 160.91 360.384 160.619 360.467 160.327C360.549 160.038 360.59 159.741 360.59 159.437C360.59 159.004 360.538 158.605 360.433 158.243C360.329 157.881 360.173 157.552 359.966 157.255C359.749 156.948 359.498 156.66 359.213 156.392C358.926 156.122 358.6 155.869 358.238 155.635C357.873 155.398 357.48 155.172 357.062 154.958C356.642 154.744 356.2 154.543 355.737 154.356C355.422 154.229 352.88 153.19 352.816 153.19C352.327 152.994 351.829 152.783 351.321 152.557C350.823 152.335 350.333 152.106 349.855 151.869C349.364 151.627 348.899 151.36 348.459 151.069C348.019 150.778 347.605 150.462 347.218 150.124C346.827 149.782 346.472 149.409 346.153 149.006C345.833 148.601 345.548 148.165 345.299 147.698C344.797 146.76 344.518 145.634 344.465 144.321V144.317C344.452 143.775 344.495 143.245 344.596 142.727C344.698 142.208 344.857 141.697 345.074 141.194C345.291 140.692 345.564 140.218 345.894 139.774C346.222 139.331 346.605 138.917 347.042 138.534C347.48 138.148 347.971 137.801 348.515 137.494C349.056 137.188 349.65 136.92 350.296 136.69C350.945 136.459 351.64 136.286 352.38 136.172C353.121 136.057 353.907 136 354.738 136C355.906 136 357.035 136.141 358.124 136.424C358.674 136.569 359.193 136.747 359.682 136.959C360.175 137.174 360.641 137.425 361.075 137.71C361.516 138 361.914 138.327 362.267 138.693C362.621 139.059 362.931 139.463 363.196 139.905C363.464 140.351 363.665 140.841 363.799 141.373C363.933 141.902 364 142.468 364 143.07V143.347L363.727 143.375Z" fill="black"/>
<path fill-rule="evenodd" clip-rule="evenodd" d="M115.314 208.774H113.502L111.325 204.976C111.127 204.625 110.935 204.325 110.746 204.073C110.558 203.825 110.366 203.622 110.171 203.467C109.973 203.309 109.763 203.193 109.537 203.122C109.312 203.048 109.055 203.013 108.771 203.013H107.521V208.774H106V195.229H109.878C110.444 195.229 110.969 195.303 111.448 195.451C111.928 195.6 112.345 195.822 112.698 196.125C113.053 196.429 113.329 196.806 113.526 197.254C113.727 197.705 113.826 198.231 113.826 198.837C113.826 199.308 113.758 199.743 113.622 200.136C113.486 200.53 113.294 200.881 113.044 201.187C112.794 201.497 112.49 201.762 112.138 201.978C111.782 202.194 111.387 202.364 110.944 202.484V202.519C111.164 202.622 111.352 202.735 111.513 202.864C111.671 202.997 111.825 203.148 111.968 203.325C112.113 203.499 112.258 203.699 112.401 203.925C112.543 204.148 112.701 204.406 112.874 204.702L115.314 208.774ZM107.521 196.664V201.578H109.587C109.967 201.578 110.32 201.516 110.641 201.397C110.966 201.278 111.244 201.107 111.479 200.881C111.714 200.659 111.9 200.385 112.033 200.059C112.166 199.737 112.231 199.372 112.231 198.969C112.231 198.244 112.008 197.679 111.556 197.273C111.108 196.867 110.456 196.664 109.605 196.664H107.521ZM129.065 208.774H122.182V195.229H128.777V196.664H123.703V201.171H128.397V202.596H123.703V207.34H129.065V208.774ZM146.796 208.774H145.111L143.735 204.976H138.224L136.928 208.774H135.237L140.219 195.229H141.796L146.796 208.774ZM143.234 203.551L141.196 197.779C141.131 197.589 141.063 197.286 140.998 196.874H140.961C140.902 197.257 140.831 197.557 140.754 197.779L138.731 203.551H143.234ZM160.529 208.774H153.791V195.229H155.312V207.34H160.529V208.774ZM184.658 208.774H177.775V195.229H184.37V196.664H179.296V201.171H183.99V202.596H179.296V207.34H184.658V208.774ZM191.634 208.226V206.356C191.841 206.547 192.088 206.714 192.373 206.866C192.66 207.017 192.964 207.146 193.279 207.249C193.598 207.352 193.916 207.433 194.234 207.491C194.556 207.546 194.853 207.575 195.122 207.575C196.059 207.575 196.758 207.395 197.222 207.03C197.682 206.669 197.914 206.147 197.914 205.469C197.914 205.102 197.837 204.786 197.682 204.515C197.528 204.244 197.314 203.996 197.045 203.773C196.773 203.548 196.452 203.335 196.08 203.129C195.706 202.926 195.308 202.71 194.878 202.484C194.426 202.245 194.003 202 193.61 201.755C193.217 201.51 192.877 201.239 192.586 200.943C192.296 200.646 192.07 200.311 191.903 199.937C191.736 199.562 191.653 199.124 191.653 198.621C191.653 198.002 191.782 197.467 192.042 197.009C192.302 196.551 192.645 196.177 193.066 195.88C193.489 195.584 193.972 195.365 194.513 195.219C195.051 195.074 195.604 195 196.164 195C197.444 195 198.378 195.161 198.966 195.484V197.27C198.199 196.715 197.212 196.438 196.013 196.438C195.678 196.438 195.348 196.474 195.014 196.545C194.683 196.619 194.386 196.738 194.126 196.899C193.867 197.064 193.656 197.277 193.492 197.535C193.328 197.793 193.248 198.105 193.248 198.479C193.248 198.824 193.31 199.124 193.434 199.375C193.557 199.627 193.74 199.856 193.981 200.066C194.222 200.272 194.519 200.475 194.865 200.668C195.212 200.865 195.613 201.078 196.065 201.31C196.532 201.552 196.971 201.803 197.389 202.068C197.806 202.332 198.171 202.626 198.483 202.945C198.799 203.267 199.046 203.622 199.232 204.012C199.417 204.402 199.507 204.851 199.507 205.353C199.507 206.021 199.383 206.588 199.132 207.049C198.882 207.514 198.542 207.891 198.118 208.178C197.692 208.468 197.2 208.678 196.646 208.807C196.09 208.936 195.505 209 194.887 209C194.683 209 194.429 208.984 194.126 208.949C193.826 208.913 193.517 208.865 193.202 208.797C192.889 208.733 192.592 208.649 192.311 208.552C192.03 208.455 191.804 208.346 191.634 208.226V208.226ZM214.866 196.664H211.115V208.774H209.594V196.664H205.852V195.229H214.866V196.664ZM230.649 208.774H228.964L227.588 204.976H222.077L220.781 208.774H219.09L224.071 195.229H225.649L230.649 208.774ZM227.087 203.551L225.049 197.779C224.984 197.589 224.916 197.286 224.851 196.874H224.814C224.755 197.257 224.684 197.557 224.607 197.779L222.584 203.551H227.087ZM243.992 196.664H240.241V208.774H238.72V196.664H234.978V195.229H243.992V196.664ZM258 208.774H251.117V195.229H257.712V196.664H252.638V201.171H257.332V202.596H252.638V207.34H258V208.774Z" fill="black"/>
<path fill-rule="evenodd" clip-rule="evenodd" d="M160.008 0H168.925H170L206.486 90H209H196.623L189.112 71.6908L184.482 60.1712H184.504L166.197 15.1712L149.767 55.5547L149.736 55.632L147.89 60.1712H147.91L143.031 72.3015L135.77 90H134.339H131L134.339 81.7681L163.747 9.257L160.008 0Z" fill="#E5AF80"/>
<path fill-rule="evenodd" clip-rule="evenodd" d="M186 0L223.026 90H233L196.104 0.000343014L186 0Z" fill="#E5AF80"/>
</svg>
