<svg width="28" height="28" viewBox="0 0 28 28" fill="none" xmlns="http://www.w3.org/2000/svg">
<path d="M0.671855 27.3332L2.47452 20.7092C1.28671 18.673 0.66265 16.3572 0.666522 13.9998C0.666522 6.63584 6.63586 0.666504 13.9999 0.666504C21.3639 0.666504 27.3332 6.63584 27.3332 13.9998C27.3332 21.3638 21.3639 27.3332 13.9999 27.3332C11.6436 27.337 9.32873 26.7134 7.29319 25.5265L0.671855 27.3332ZM9.18785 7.74384C9.01567 7.75453 8.84742 7.79988 8.69319 7.87717C8.54855 7.95908 8.41652 8.06147 8.30119 8.18117C8.14119 8.33184 8.05052 8.4625 7.95319 8.58917C7.4604 9.2305 7.19533 10.0177 7.19986 10.8265C7.20252 11.4798 7.37319 12.1158 7.63986 12.7105C8.18519 13.9132 9.08252 15.1865 10.2679 16.3665C10.5532 16.6505 10.8319 16.9358 11.1319 17.2012C12.603 18.4965 14.3562 19.4306 16.2519 19.9292L17.0105 20.0452C17.2572 20.0585 17.5039 20.0398 17.7519 20.0278C18.1402 20.0078 18.5193 19.9026 18.8625 19.7198C19.0839 19.6025 19.1879 19.5438 19.3732 19.4265C19.3732 19.4265 19.4305 19.3892 19.5399 19.3065C19.7199 19.1732 19.8305 19.0785 19.9799 18.9225C20.0905 18.8078 20.1865 18.6732 20.2599 18.5198C20.3639 18.3025 20.4679 17.8878 20.5105 17.5425C20.5425 17.2785 20.5332 17.1345 20.5292 17.0452C20.5239 16.9025 20.4052 16.7545 20.2759 16.6918L19.4999 16.3438C19.4999 16.3438 18.3399 15.8385 17.6319 15.5158C17.5572 15.4833 17.4772 15.4648 17.3959 15.4612C17.3046 15.4518 17.2125 15.4621 17.1255 15.4913C17.0386 15.5205 16.9589 15.568 16.8919 15.6305V15.6278C16.8852 15.6278 16.7959 15.7038 15.8319 16.8718C15.7765 16.9462 15.7003 17.0024 15.6129 17.0332C15.5255 17.0641 15.4309 17.0683 15.3412 17.0452C15.2543 17.0219 15.1692 16.9925 15.0865 16.9572C14.9212 16.8878 14.8639 16.8612 14.7505 16.8118L14.7439 16.8092C13.9811 16.4761 13.2748 16.0263 12.6505 15.4758C12.4825 15.3292 12.3265 15.1692 12.1665 15.0145C11.642 14.5122 11.1848 13.9439 10.8065 13.3238L10.7279 13.1972C10.6714 13.1121 10.6257 13.0202 10.5919 12.9238C10.5412 12.7278 10.6732 12.5705 10.6732 12.5705C10.6732 12.5705 10.9972 12.2158 11.1479 12.0238C11.2733 11.8643 11.3904 11.6983 11.4985 11.5265C11.6559 11.2732 11.7052 11.0132 11.6225 10.8118C11.2492 9.89984 10.8625 8.99184 10.4652 8.0905C10.3865 7.91184 10.1532 7.78384 9.94119 7.7585C9.86919 7.7505 9.79719 7.7425 9.72519 7.73717C9.54613 7.72827 9.3667 7.73006 9.18785 7.7425V7.74384Z" fill="#F2E1AB"/>
</svg>
